<?xml version="1.0" encoding="UTF-8" standalone="no"?>
<!-- Uploaded to: SVG Repo, www.svgrepo.com, Generator: SVG Repo Mixer Tools -->

<svg
   width="800px"
   height="800px"
   viewBox="0 0 24 24"
   fill="none"
   version="1.1"
   id="svg4"
   sodipodi:docname="like_percent_img.svg"
   xml:space="preserve"
   inkscape:version="1.2.2 (732a01da63, 2022-12-09)"
   xmlns:inkscape="http://www.inkscape.org/namespaces/inkscape"
   xmlns:sodipodi="http://sodipodi.sourceforge.net/DTD/sodipodi-0.dtd"
   xmlns="http://www.w3.org/2000/svg"
   xmlns:svg="http://www.w3.org/2000/svg"><defs
     id="defs8" /><sodipodi:namedview
     id="namedview6"
     pagecolor="#ffffff"
     bordercolor="#666666"
     borderopacity="1.0"
     inkscape:showpageshadow="2"
     inkscape:pageopacity="0.0"
     inkscape:pagecheckerboard="0"
     inkscape:deskcolor="#d1d1d1"
     showgrid="false"
     inkscape:zoom="0.548125"
     inkscape:cx="47.434436"
     inkscape:cy="314.70924"
     inkscape:window-width="1920"
     inkscape:window-height="1058"
     inkscape:window-x="-8"
     inkscape:window-y="-8"
     inkscape:window-maximized="1"
     inkscape:current-layer="svg4" /><path
     d="M15.5 8.5L8.5 15.5M9.5 9.5H9.51M14.5 14.5H14.51M21 12C21 16.9706 16.9706 21 12 21C7.02944 21 3 16.9706 3 12C3 7.02944 7.02944 3 12 3C16.9706 3 21 7.02944 21 12ZM10 9.5C10 9.77614 9.77614 10 9.5 10C9.22386 10 9 9.77614 9 9.5C9 9.22386 9.22386 9 9.5 9C9.77614 9 10 9.22386 10 9.5ZM15 14.5C15 14.7761 14.7761 15 14.5 15C14.2239 15 14 14.7761 14 14.5C14 14.2239 14.2239 14 14.5 14C14.7761 14 15 14.2239 15 14.5Z"
     stroke="#000000"
     stroke-width="2"
     stroke-linecap="round"
     stroke-linejoin="round"
     id="path2" /><g
     style="fill:#000000"
     id="g248"
     transform="matrix(0.01208285,0,0,0.01208285,17.528175,17.815402)"><g
       id="g239">
	<path
   d="m 462.8,181.564 c -12.3,-10.5 -27.7,-16.2 -43.3,-16.2 h -15.8 -56.9 -32.4 v -75.9 c 0,-31.9 -9.3,-54.9 -27.7,-68.4 -29.1,-21.4 -69.2,-9.2 -70.9,-8.6 -5,1.6 -8.4,6.2 -8.4,11.4 v 84.9 c 0,27.7 -13.2,51.2 -39.3,69.9 -19.5,14 -39.4,20.1 -41.5,20.8 l -2.9,0.7 c -4.3,-7.3 -12.2,-12.2 -21.3,-12.2 H 24.7 c -13.6,0 -24.7,11.1 -24.7,24.7 v 228.4 c 0,13.6 11.1,24.7 24.7,24.7 h 77.9 c 7.6,0 14.5,-3.5 19,-8.9 12.5,13.3 30.2,21.6 49.4,21.6 h 65.9 6.8 135.1 c 45.9,0 75.2,-24 80.4,-66 l 26.9,-166.9 c 3.7,-24 -5.2,-48.6 -23.3,-64 z m -359.6,259.5 c 0,0.4 -0.3,0.7 -0.7,0.7 H 24.7 c -0.4,0 -0.7,-0.3 -0.7,-0.7 v -228.4 c 0,-0.4 0.3,-0.7 0.7,-0.7 h 77.9 c 0.4,0 0.7,0.3 0.7,0.7 v 228.4 z m 359,-199.3 -26.8,167.2 c 0,0.1 0,0.3 -0.1,0.5 -3.7,29.9 -22.7,45.1 -56.6,45.1 h -135.1 -6.8 -65.9 c -21.3,0 -39.8,-15.9 -43.1,-36.9 -0.1,-0.7 -0.3,-1.4 -0.5,-2.1 v -191.6 l 5.2,-1.2 c 0.2,0 0.3,-0.1 0.5,-0.1 1,-0.3 24.7,-7 48.6,-24 32.7,-23.2 49.9,-54.3 49.9,-89.9 v -75.3 c 10.4,-1.7 28.2,-2.6 41.1,7 11.8,8.7 17.8,25.2 17.8,49 v 87.8 c 0,6.6 5.4,12 12,12 h 44.4 56.9 15.8 c 9.9,0 19.8,3.7 27.7,10.5 11.8,10.1 17.6,26.2 15,42 z"
   id="path237" />
</g></g></svg>
