<?xml version="1.0" encoding="UTF-8" standalone="no"?>
<!-- Uploaded to: SVG Repo, www.svgrepo.com, Generator: SVG Repo Mixer Tools -->

<svg
   width="800px"
   height="800px"
   viewBox="0 0 1024 1024"
   version="1.1"
   id="svg4"
   sodipodi:docname="view_img_dark.svg"
   inkscape:version="1.2.2 (732a01da63, 2022-12-09)"
   xmlns:inkscape="http://www.inkscape.org/namespaces/inkscape"
   xmlns:sodipodi="http://sodipodi.sourceforge.net/DTD/sodipodi-0.dtd"
   xmlns="http://www.w3.org/2000/svg"
   xmlns:svg="http://www.w3.org/2000/svg">
  <defs
     id="defs8" />
  <sodipodi:namedview
     id="namedview6"
     pagecolor="#ffffff"
     bordercolor="#666666"
     borderopacity="1.0"
     inkscape:showpageshadow="2"
     inkscape:pageopacity="0.0"
     inkscape:pagecheckerboard="0"
     inkscape:deskcolor="#d1d1d1"
     showgrid="false"
     inkscape:zoom="1.09625"
     inkscape:cx="307.41163"
     inkscape:cy="400.9122"
     inkscape:window-width="1920"
     inkscape:window-height="1058"
     inkscape:window-x="-8"
     inkscape:window-y="-8"
     inkscape:window-maximized="1"
     inkscape:current-layer="svg4" />
  <path
     fill="#000000"
     d="M512 160c320 0 512 352 512 352S832 864 512 864 0 512 0 512s192-352 512-352zm0 64c-225.28 0-384.128 208.064-436.8 288 52.608 79.872 211.456 288 436.8 288 225.28 0 384.128-208.064 436.8-288-52.608-79.872-211.456-288-436.8-288zm0 64a224 224 0 1 1 0 448 224 224 0 0 1 0-448zm0 64a160.192 160.192 0 0 0-160 160c0 88.192 71.744 160 160 160s160-71.808 160-160-71.744-160-160-160z"
     id="path2"
     style="fill:#ffffff;fill-opacity:1" />
</svg>
